<svg width="36" height="36" viewBox="0 0 36 36" fill="none" xmlns="http://www.w3.org/2000/svg">
<g clip-path="url(#clip0_2564_385)">
<rect width="36" height="36" rx="5" fill="#DAE4F0"/>
<path d="M12.3064 20.8163C11.3791 20.6096 10.5957 20.8459 9.95036 21.5269C9.26122 22.2541 8.80068 23.0963 8.58673 24.0591C8.38087 24.9856 8.44893 25.8894 8.90533 26.7431C9.1743 27.2462 9.53447 27.3541 10.0422 27.0725C10.385 26.8823 10.7004 26.6466 11.039 26.4488C11.4519 26.2078 11.8626 25.9565 12.299 25.7616C12.9345 25.4775 13.6262 25.447 14.3171 25.4275C14.7984 25.4139 15.2846 25.4021 15.7577 25.3257C16.139 25.264 16.3029 24.9864 16.2611 24.6088C16.2347 24.3689 16.1774 24.1323 16.1266 23.8549C15.9802 23.5782 15.8482 23.2539 15.6524 22.971C14.8474 21.8083 13.7011 21.1272 12.3064 20.8163Z" fill="#176FC1"/>
<path d="M8.46584 20.6559C9.06586 20.8215 9.59116 20.5501 9.80246 19.9832C9.94813 19.5923 9.89061 19.2076 9.78267 18.87C9.47953 18.0616 8.94148 17.5409 8.2342 17.343C7.65616 17.1812 7.10488 17.4517 6.90356 18.0015C6.73914 18.4505 6.80094 18.8914 6.99034 19.317C7.2803 19.9682 7.74035 20.4555 8.46584 20.6559Z" fill="#176FC1"/>
<path d="M12.347 19.6523C12.74 19.5708 13.0072 19.3077 13.1717 18.9739C13.5879 18.1298 13.5496 17.2981 12.98 16.5288C12.6946 16.1435 12.2916 15.9372 11.7808 16.0533C11.4381 16.1312 11.1972 16.3537 11.0236 16.6384C10.6758 17.2087 10.6287 17.8178 10.7732 18.4646C10.8875 18.6846 10.9752 18.923 11.1216 19.1207C11.4171 19.5201 11.8124 19.7632 12.347 19.6523Z" fill="#176FC1"/>
<path d="M8.11309 22.4082C7.86238 21.5848 7.05436 20.9683 6.24099 20.9384C5.58514 20.9144 5.12677 21.4004 5.20788 22.0335C5.311 22.8381 6.12883 23.6204 6.96176 23.7114C7.48086 23.768 7.87516 23.5925 8.06663 23.2109C8.20698 22.9315 8.18699 22.6432 8.11309 22.4082Z" fill="#176FC1"/>
<path d="M16.5271 18.7213C16.2456 18.0164 15.5014 17.8212 14.8969 18.2933C14.2003 18.8373 13.9759 19.996 14.4222 20.7456C14.7337 21.2688 15.377 21.3824 15.8811 21.029C16.5383 20.5683 16.8109 19.5447 16.5699 18.8503C16.5557 18.8072 16.5439 18.7633 16.5271 18.7213Z" fill="#176FC1"/>
<path d="M23.6936 13.8514C24.6209 13.6448 25.4043 13.8811 26.0496 14.5621C26.7388 15.2892 27.1993 16.1315 27.4133 17.0943C27.6191 18.0208 27.5511 18.9245 27.0947 19.7783C26.8257 20.2813 26.4655 20.3892 25.9578 20.1077C25.615 19.9175 25.2996 19.6817 24.961 19.484C24.5481 19.2429 24.1374 18.9917 23.701 18.7967C23.0655 18.5126 22.3738 18.4822 21.6829 18.4627C21.2016 18.4491 20.7154 18.4373 20.2423 18.3608C19.861 18.2991 19.6971 18.0215 19.7389 17.644C19.7653 17.4041 19.8226 17.1674 19.8734 16.8901C20.0198 16.6133 20.1518 16.289 20.3476 16.0061C21.1526 14.8434 22.2989 14.1624 23.6936 13.8514Z" fill="#176FC1"/>
<path d="M27.5342 13.691C26.9341 13.8566 26.4088 13.5853 26.1975 13.0184C26.0519 12.6274 26.1094 12.2427 26.2173 11.9051C26.5205 11.0967 27.0585 10.5761 27.7658 10.3781C28.3438 10.2163 28.8951 10.4869 29.0964 11.0367C29.2609 11.4857 29.1991 11.9266 29.0097 12.3521C28.7197 13.0034 28.2596 13.4907 27.5342 13.691Z" fill="#176FC1"/>
<path d="M23.6511 12.6875C23.258 12.606 22.9908 12.3428 22.8263 12.0091C22.4101 11.1649 22.4485 10.3333 23.0181 9.564C23.3034 9.17866 23.7065 8.97239 24.2173 9.08846C24.56 9.16634 24.8008 9.38889 24.9745 9.67351C25.3223 10.2439 25.3693 10.853 25.2249 11.4997C25.1106 11.7197 25.0228 11.9581 24.8765 12.1558C24.5809 12.5553 24.1857 12.7983 23.6511 12.6875Z" fill="#176FC1"/>
<path d="M27.8869 15.4433C28.1376 14.6199 28.9456 14.0034 29.759 13.9736C30.4149 13.9495 30.8732 14.4356 30.7921 15.0687C30.689 15.8732 29.8712 16.6556 29.0382 16.7465C28.5191 16.8032 28.1248 16.6276 27.9334 16.2461C27.793 15.9667 27.813 15.6783 27.8869 15.4433Z" fill="#176FC1"/>
<path d="M19.4709 11.7564C19.7524 11.0516 20.4967 10.8563 21.1011 11.3285C21.7978 11.8725 22.0221 13.0312 21.5758 13.7807C21.2643 14.3039 20.621 14.4175 20.1169 14.0641C19.4597 13.6035 19.1871 12.5799 19.4282 11.8854C19.4424 11.8423 19.4542 11.7985 19.4709 11.7564Z" fill="#176FC1"/>
</g>
<defs>
<clipPath id="clip0_2564_385">
<rect width="36" height="36" fill="white"/>
</clipPath>
</defs>
</svg>
