<svg width="36" height="36" viewBox="0 0 36 36" fill="none" xmlns="http://www.w3.org/2000/svg">
<rect width="36" height="36" rx="5" fill="#DAE4F0"/>
<path d="M14.3333 26.9996L7 23.4371V7.99963L14.3333 11.5621M14.3333 26.9996L21.6667 23.4371ZM14.3333 26.9996V11.5621ZM21.6667 23.4371L29 26.9996V11.5621L21.6667 7.99963M21.6667 23.4371V7.99963ZM14.3333 11.5621L21.6667 7.99963Z" fill="#176FC1"/>
<path d="M14.3333 26.9996L7 23.4371V7.99963L14.3333 11.5621M14.3333 26.9996L21.6667 23.4371M14.3333 26.9996V11.5621M14.3333 11.5621L21.6667 7.99963M21.6667 23.4371L29 26.9996V11.5621L21.6667 7.99963M21.6667 23.4371V7.99963" stroke="#176FC1" stroke-width="1.5" stroke-linecap="round" stroke-linejoin="round"/>
</svg>
