<svg width="36" height="36" viewBox="0 0 36 36" fill="none" xmlns="http://www.w3.org/2000/svg">
<rect width="36" height="36" rx="5" fill="#DAE4F0"/>
<path d="M23.3028 12.2775C21.5362 11.4176 19.7704 10.556 18.0054 9.69263L6.92285 15.0983L8.81914 16.0457L8.6622 16.0718L7.84593 26.9354H9.59633V16.8867L10.2689 16.7668L10.5305 16.8973V22.0092C10.5305 22.8927 15.3935 25.4245 16.3678 25.9233C16.8744 26.1806 17.4319 26.3123 17.9961 26.3079C18.5603 26.3035 19.1159 26.1633 19.6186 25.8982C25.4766 22.7951 25.4766 22.2238 25.4766 22.0092V16.8973L29.0767 15.1022C29.0767 15.1022 25.527 13.3612 23.3028 12.2775ZM24.5424 21.8458C22.8273 23.0272 21.0407 24.0934 19.1936 25.0378C18.8207 25.2348 18.4085 25.3391 17.9898 25.3424C17.5712 25.3458 17.1575 25.2481 16.7817 25.0571C14.9279 24.1444 13.1495 23.0759 11.4646 21.8622V17.3623L18.0035 20.623L24.5424 17.3623V21.8458ZM18.0035 19.5519L11.8532 16.4846L17.8961 15.4067L17.7373 14.4526L10.4044 15.7615L9.09377 15.108L18.0026 10.7627C18.7732 11.1427 25.9642 14.643 26.9161 15.107L18.0035 19.5519Z" fill="#176FC1"/>
<path d="M23.745 11.8002C21.8312 10.8686 19.9182 9.93519 18.0061 8.99988L6 14.8561L8.05431 15.8824L7.8843 15.9106V26.8742H8.89627V16.7935L9.62489 16.6636L9.90825 16.805V22.3428C9.90825 23.3 15.1766 26.0427 16.2321 26.5831C16.7808 26.8618 17.3848 27.0045 17.996 26.9998C18.6073 26.995 19.2091 26.8431 19.7538 26.5559C26.0998 23.1942 26.0998 22.5753 26.0998 22.3428V16.805L30 14.8603C30 14.8603 26.1545 12.9742 23.745 11.8002ZM25.0879 22.1658C23.2299 23.4456 21.2944 24.6007 19.2933 25.6238C18.8893 25.8372 18.4428 25.9502 17.9892 25.9538C17.5357 25.9575 17.0875 25.8516 16.6804 25.6448C14.6721 24.656 12.7456 23.4984 10.9202 22.1836V17.3087L18.004 20.8411L25.0879 17.3087V22.1658ZM18.004 19.6807L11.3412 16.3578L17.8877 15.1901L17.7156 14.1565L9.77163 15.5745L8.35183 14.8665L18.003 10.1592C18.8379 10.5707 26.6281 14.3628 27.6593 14.8655L18.004 19.6807Z" fill="#176FC1"/>
</svg>
