<svg width="36" height="36" viewBox="0 0 36 36" fill="none" xmlns="http://www.w3.org/2000/svg">
<rect width="36" height="36" rx="5" fill="#DAE4F0"/>
<path d="M17.2 6C15.3854 6 13.9143 7.47106 13.9143 9.28571C13.9143 9.75857 14.3916 10.1938 14.5714 10.6H8V17.1714C8.40625 16.9916 8.84143 16.5143 9.31429 16.5143C11.1289 16.5143 12.6 17.9854 12.6 19.8C12.6 21.6147 11.1289 23.0857 9.31429 23.0857C8.84143 23.0857 8.40625 22.6084 8 22.4286V29H26.4V22.4286C26.8062 22.6084 27.2414 23.0857 27.7143 23.0857C29.5289 23.0857 31 21.6147 31 19.8C31 17.9854 29.5289 16.5143 27.7143 16.5143C27.2414 16.5143 26.8062 16.9916 26.4 17.1714V10.6H19.8286C20.0084 10.1938 20.4857 9.75857 20.4857 9.28571C20.4857 7.47106 19.0147 6 17.2 6Z" fill="#176FC1" stroke="#176FC1" stroke-width="0.75" stroke-linecap="round" stroke-linejoin="round"/>
</svg>
